<svg width="56" height="29" viewBox="0 0 56 29" fill="none" xmlns="http://www.w3.org/2000/svg">
<path d="M28 0H23.1701C21.9183 0 20.7506 0.491441 19.8823 1.38382C19.1167 2.17051 18.6616 3.19043 18.5798 4.28704C16.5184 1.73008 13.3701 0.0925924 9.84887 0.0925924C7.44765 0.0925924 5.02052 0.923656 3.18974 2.37264C2.24939 3.11723 1.65583 4.2638 1.56087 5.51904C1.46157 6.83229 1.90383 8.12212 2.77426 9.05783C3.57322 9.91667 4.71774 10.3896 5.99704 10.3896C7.21235 10.3896 8.22922 9.98008 8.7273 9.73602C9.152 9.52743 9.63965 9.39902 9.84904 9.39902C10.9377 9.39902 11.8235 10.2912 11.8235 11.3878C11.8235 11.9399 11.7367 12.1087 11.7358 12.1102C11.5005 12.4139 9.90591 12.9486 9.22487 13.1772C7.60782 13.7196 5.39322 14.4624 3.51774 16.0121C1.18556 17.9392 0.00208696 20.5877 0 23.8842V23.8927V24.0295C0 25.3353 0.457565 26.5573 1.28835 27.4706C2.18556 28.4568 3.42452 29 4.77722 29H28.2769C31.1797 29 34.0303 27.7844 36.0977 25.6649C38.2097 23.4997 39.3729 20.5901 39.3729 17.4724V10.4125C39.3729 7.54001 38.017 4.75611 35.653 2.77463C33.5492 1.01118 30.7598 0 28 0Z" fill="white"/>
<path d="M48.0163 0C45.4279 0 43.322 2.11321 43.322 4.71069V20.352C43.322 22.5379 44.1417 24.5641 45.6302 26.0571C46.8846 27.3155 48.5088 28.1724 50.4577 28.6043C50.7985 28.6799 51.1446 28.7184 51.4858 28.7184C53.51 28.7184 55.2455 27.3718 55.8044 25.3674C56.4533 23.0398 55.0184 20.384 52.6712 19.5676C52.6417 19.5573 52.6119 19.547 52.5822 19.5369V12.7458C53.3432 12.5304 54.0578 12.1115 54.6373 11.5267C55.5032 10.6532 55.9999 9.48026 55.9999 8.3087C55.9999 6.12823 54.4608 4.2369 52.457 3.73515C51.9665 1.65077 50.1011 0 48.0163 0Z" fill="white"/>
<path d="M41.3975 0.0446777C38.8443 0.0446777 36.7671 2.12522 36.7671 4.68252C36.7671 7.23982 38.8443 9.32036 41.3975 9.32036C43.9507 9.32036 46.028 7.23982 46.028 4.68252C46.028 2.12522 43.9507 0.0446777 41.3975 0.0446777Z" fill="white"/>
<path d="M41.4076 6.81348C38.8193 6.81348 36.7134 8.92668 36.7134 11.5242C36.7134 13.8231 36.7092 15.9335 36.705 17.9746C36.701 19.9513 36.697 21.9955 36.697 24.1515C36.697 26.7031 38.7929 28.7791 41.3689 28.7791C43.7899 28.7791 45.9137 26.5733 45.9137 24.0586C45.9137 23.596 45.9287 20.734 45.9431 17.9663C45.9588 14.9655 45.9735 12.1309 45.9735 11.6213C45.9735 9.06016 43.84 6.81348 41.4076 6.81348Z" fill="white"/>
<path d="M4.77757 27.6025C2.84713 27.6025 1.39148 26.0665 1.39148 24.0296V23.8843C1.39583 17.277 6.57235 15.5404 9.66557 14.5029C12.8169 13.4457 13.215 13.0965 13.215 11.3879C13.215 9.5207 11.705 8.00148 9.84904 8.00148C9.29009 8.00148 8.5673 8.25899 8.11843 8.47947C7.45339 8.80546 6.68052 8.99204 5.99704 8.99204C5.09443 8.99204 4.33148 8.68492 3.79096 8.10385C3.18539 7.45291 2.87826 6.5497 2.94817 5.62517C3.01374 4.75899 3.41565 3.9737 4.05061 3.47091C5.61739 2.23069 7.78505 1.49047 9.84887 1.49047C15.2765 1.49047 19.6922 5.93055 19.6922 11.3879C19.6922 18.0037 14.6991 19.6785 11.7158 20.6792C11.2722 20.8282 10.8807 20.9637 10.5351 21.0915H28.2769C29.829 21.0915 31.5042 19.7078 31.5042 17.4725V10.4126C31.5042 9.27839 29.941 7.90854 27.9998 7.90854H26.4353V17.2227C26.4353 19.0724 24.94 20.635 23.1701 20.635C21.4289 20.635 19.9579 19.1021 19.9579 17.2876V4.64613C19.9579 2.82451 21.3689 1.39771 23.1701 1.39771H27.9998C30.4391 1.39771 32.9037 2.29079 34.7616 3.84774C36.808 5.56297 37.9817 7.95571 37.9817 10.4126V17.4725C37.9817 20.2223 36.9598 22.7845 35.1042 24.6868C33.2967 26.5397 30.8083 27.6025 28.277 27.6025H4.77757Z" fill="url(#paint0_linear)"/>
<path d="M28 2.79525C30.1186 2.79525 32.2583 3.56971 33.8704 4.92086C35.599 6.36985 36.5904 8.37107 36.5904 10.4125V17.4724C36.5904 19.8541 35.7097 22.069 34.1106 23.7086C32.5633 25.2947 30.4372 26.2049 28.2772 26.2049C28.2772 26.2049 10.6562 26.2049 4.77757 26.2049C3.61096 26.2049 2.78278 25.2773 2.78278 24.0297C2.78278 23.9074 2.78278 23.8843 2.78278 23.8843V23.8929C2.78278 18.3501 7.01565 16.8653 10.1063 15.8286C13.1454 14.809 14.6061 14.1948 14.6061 11.388C14.6061 8.75 12.472 6.60395 9.84904 6.60395C9.01913 6.60395 8.08661 6.93938 7.50713 7.22397C7.08643 7.43012 6.52609 7.59452 5.99704 7.59452C5.54069 7.59452 5.10765 7.4724 4.80748 7.14955C4.13809 6.43012 4.17217 5.15444 4.912 4.56849C6.16417 3.57739 7.97896 2.88802 9.84904 2.88802C14.5094 2.88802 18.301 6.70091 18.301 11.388C18.301 16.9967 14.2403 18.359 11.2755 19.3536C8.77756 20.1915 7.27965 20.7792 6.72452 22.4892H28.2772C30.4983 22.4892 32.8957 20.5711 32.8957 17.4727V10.4128C32.8957 8.3709 30.5623 6.51118 28 6.51118C28 6.51118 26.6828 6.51118 25.9452 6.51118C25.2049 6.51118 25.0442 6.51118 25.0442 6.51118C25.0442 6.51118 25.0442 6.60657 25.0442 7.56394C25.0442 9.88278 25.0442 14.7332 25.0442 17.2231C25.0442 18.3222 24.1233 19.2378 23.1703 19.2378C22.2779 19.2378 21.3494 18.4041 21.3494 17.2881C21.3494 14.1127 21.3494 7.73445 21.3494 4.64658C21.3494 3.62544 22.137 2.7956 23.1703 2.7956C25.1393 2.79525 28 2.79525 28 2.79525ZM28 0H23.1701C21.9183 0 20.7506 0.491441 19.8823 1.38382C19.1167 2.17051 18.6616 3.19043 18.5798 4.28704C16.5184 1.73008 13.3701 0.0925924 9.84887 0.0925924C7.44765 0.0925924 5.02052 0.923656 3.18974 2.37264C2.24939 3.11723 1.65583 4.2638 1.56087 5.51904C1.46157 6.83229 1.90383 8.12212 2.77426 9.05783C3.57322 9.91667 4.71774 10.3896 5.99704 10.3896C7.21235 10.3896 8.22922 9.98008 8.7273 9.73602C9.152 9.52743 9.63965 9.39902 9.84904 9.39902C10.9377 9.39902 11.8235 10.2912 11.8235 11.3878C11.8235 11.9399 11.7367 12.1087 11.7358 12.1102C11.5005 12.4139 9.90591 12.9486 9.22487 13.1772C7.60782 13.7196 5.39322 14.4624 3.51774 16.0121C1.18556 17.9392 0.00208696 20.5877 0 23.8842V23.8927V24.0295C0 25.3353 0.457565 26.5573 1.28835 27.4706C2.18556 28.4568 3.42452 29 4.77722 29H28.2769C31.1797 29 34.0303 27.7844 36.0977 25.6649C38.2097 23.4997 39.3729 20.5901 39.3729 17.4724V10.4125C39.3729 7.54001 38.017 4.75611 35.653 2.77463C33.5492 1.01118 30.7598 0 28 0ZM27.8268 9.30608H28C29.1624 9.30608 30.0565 10.0952 30.113 10.4202V17.4726C30.113 18.9878 29.0176 19.6937 28.2772 19.6937H27.1423C27.5751 18.9665 27.8268 18.1185 27.8268 17.2227V9.30608ZM17.1125 19.6937C17.3066 19.5522 17.4983 19.4027 17.687 19.2439C18.044 18.9436 18.373 18.6244 18.6743 18.2869C18.7831 18.7877 18.9718 19.2621 19.2249 19.6937H17.1125Z" fill="white"/>
<path fill-rule="evenodd" clip-rule="evenodd" d="M51.4857 27.3208C51.2453 27.3208 51.0003 27.2936 50.7573 27.2396C49.0714 26.8657 47.6772 26.1353 46.6135 25.0682C45.3705 23.8215 44.7135 22.1907 44.7135 20.3521V4.71077C44.7135 2.8839 46.1952 1.39771 48.0165 1.39771C49.6778 1.39771 51.1909 3.02314 51.1909 4.80808V5.00305H51.4046C53.1114 5.00305 54.6086 6.54795 54.6086 8.30913C54.6086 10.0165 53.1116 11.5142 51.4046 11.5142H51.1909V20.3523C51.1909 20.4075 51.1947 20.4447 51.1984 20.4667C51.3474 20.5913 51.7617 20.7328 52.0403 20.828L52.2163 20.8886C53.8925 21.4716 54.9222 23.35 54.465 24.9905C54.0697 26.4063 52.9005 27.3208 51.4857 27.3208Z" fill="black"/>
<path d="M48.0163 2.79525C48.918 2.79525 49.7994 3.80416 49.7994 4.808C49.7994 5.80154 49.7994 6.4006 49.7994 6.4006C50.3166 6.4006 50.8834 6.4006 51.4045 6.4006C52.394 6.4006 53.2171 7.36338 53.2171 8.30905C53.2171 9.22083 52.3502 10.1165 51.4045 10.1165C50.8808 10.1165 50.3149 10.1165 49.7994 10.1165C49.7994 10.1165 49.7994 11.1904 49.7994 12.1986C49.7994 15.0143 49.7994 20.3522 49.7994 20.3522C49.7994 20.9626 50.0163 21.2587 50.2053 21.4481C50.5902 21.8344 51.2098 22.0176 51.7606 22.2091C52.738 22.5491 53.3773 23.7077 53.1248 24.6136C52.9067 25.3957 52.2862 25.9231 51.4857 25.9231C51.3478 25.9231 51.2044 25.9074 51.057 25.8747C49.9359 25.6263 48.6316 25.1178 47.5961 24.0791C46.6203 23.1003 46.1045 21.8115 46.1045 20.352C46.1045 20.352 46.1045 9.26345 46.1045 4.71069C46.1046 3.53494 47.0718 2.79525 48.0163 2.79525ZM48.0163 0C45.4279 0 43.322 2.11321 43.322 4.71069V20.352C43.322 22.5379 44.1417 24.5641 45.6302 26.0571C46.8846 27.3155 48.5088 28.1724 50.4577 28.6043C50.7985 28.6799 51.1446 28.7184 51.4858 28.7184C53.51 28.7184 55.2455 27.3718 55.8044 25.3674C56.4533 23.0398 55.0184 20.384 52.6712 19.5676C52.6417 19.5573 52.6119 19.547 52.5822 19.5369V12.7458C53.3432 12.5304 54.0578 12.1115 54.6373 11.5267C55.5032 10.6532 55.9999 9.48026 55.9999 8.3087C55.9999 6.12823 54.4608 4.2369 52.457 3.73515C51.9665 1.65077 50.1011 0 48.0163 0Z" fill="white"/>
<path fill-rule="evenodd" clip-rule="evenodd" d="M41.3976 7.92281C39.6115 7.92281 38.1584 6.46929 38.1584 4.6826C38.1584 2.89591 39.6115 1.44238 41.3976 1.44238C43.1837 1.44238 44.6367 2.89591 44.6367 4.6826C44.6367 6.46929 43.1837 7.92281 41.3976 7.92281Z" fill="black"/>
<path d="M41.3975 2.83993C42.418 2.83993 43.2453 3.66487 43.2453 4.68252C43.2453 5.70016 42.418 6.52511 41.3975 6.52511C40.377 6.52511 39.5497 5.70016 39.5497 4.68252C39.5497 3.66487 40.377 2.83993 41.3975 2.83993ZM41.3975 0.0446777C38.8443 0.0446777 36.7671 2.12522 36.7671 4.68252C36.7671 7.23982 38.8443 9.32036 41.3975 9.32036C43.9507 9.32036 46.028 7.23982 46.028 4.68252C46.028 2.12522 43.9507 0.0446777 41.3975 0.0446777Z" fill="white"/>
<path fill-rule="evenodd" clip-rule="evenodd" d="M41.3688 27.3816C39.5602 27.3816 38.0885 25.9328 38.0885 24.1519C38.0885 21.9978 38.0925 19.999 38.0965 17.9777C38.1005 15.9132 38.1048 13.8252 38.1048 11.5245C38.1048 9.69763 39.5866 8.21143 41.4078 8.21143C43.0692 8.21143 44.5822 9.83686 44.5822 11.6218C44.5822 12.1277 44.5668 15.0925 44.5518 17.9595C44.5374 20.7291 44.5224 23.5928 44.5224 24.0591C44.5224 25.7977 43.0193 27.3816 41.3688 27.3816Z" fill="black"/>
<path d="M41.4076 9.60872C42.3094 9.60872 43.1908 10.6176 43.1908 11.6215C43.1908 12.615 43.1309 23.1084 43.1309 24.0588C43.1309 25.0189 42.26 25.984 41.3687 25.984C40.4351 25.984 39.4795 25.2764 39.4795 24.1517C39.4795 19.7969 39.4958 16.0771 39.4958 11.5243C39.496 10.3484 40.4631 9.60872 41.4076 9.60872ZM41.4076 6.81348C38.8193 6.81348 36.7134 8.92668 36.7134 11.5242C36.7134 13.8231 36.7092 15.9335 36.705 17.9746C36.701 19.9513 36.697 21.9955 36.697 24.1515C36.697 26.7031 38.7929 28.7791 41.3689 28.7791C43.7899 28.7791 45.9137 26.5733 45.9137 24.0586C45.9137 23.596 45.9287 20.734 45.9431 17.9663C45.9588 14.9655 45.9735 12.1309 45.9735 11.6213C45.9735 9.06016 43.84 6.81348 41.4076 6.81348Z" fill="white"/>
<defs>
<linearGradient id="paint0_linear" x1="0.0816537" y1="19.6553" x2="38.0213" y2="9.53542" gradientUnits="userSpaceOnUse">
<stop stop-color="#00CBBF"/>
<stop offset="1" stop-color="#1C65EB"/>
</linearGradient>
</defs>
</svg>
